<svg width="100" height="100" viewBox="0 0 100 100" fill="none" xmlns="http://www.w3.org/2000/svg">
<path d="M96.2765 90.9414L95.0255 95.3201C94.5425 97.0074 92.7128 98.3883 90.9573 98.3883H14.3616C12.6063 98.3883 10.7765 97.0074 10.2935 95.3201L9.04248 90.9414H96.2765Z" fill="#E8D6BD"/>
<path d="M86.7021 34.2715V51.2928C86.7021 70.0949 71.4596 85.3353 52.6596 85.3353C42.9234 85.3353 34.1447 81.248 27.9404 74.6971H18.617C14.0701 74.6971 9.7957 72.9267 6.58086 69.7119C3.36602 66.4971 1.5957 62.2225 1.5957 57.6758C1.5957 53.1289 3.36582 48.8545 6.58086 45.6396C9.7959 42.4248 14.0703 40.6545 18.617 40.6545V34.2715H86.7021ZM80.3191 51.2928V40.6545C73.4043 40.6545 73.4043 43.6332 66.4892 43.6332C59.5742 43.6332 59.5744 40.6545 52.6574 40.6545C45.7447 40.6545 45.7447 43.6332 38.8297 43.6332C31.9146 43.6332 31.9148 40.6545 25 40.6545V51.2928C25 66.5437 37.4086 78.9523 52.6596 78.9523C67.9105 78.9523 80.3191 66.5437 80.3191 51.2928ZM18.617 68.3141H23.1723C20.2744 63.3076 18.617 57.4928 18.617 51.2928V47.0375C15.7744 47.0375 13.1043 48.1439 11.0936 50.1523C9.08496 52.1629 7.97871 54.8332 7.97871 57.6758C7.97871 60.5184 9.08516 63.1885 11.0957 65.1992C13.1043 67.2076 15.7744 68.3141 18.617 68.3141Z" fill="#C8FEFF"/>
<path d="M41.8426 3.93164L63.4787 25.5678C59.3618 29.6848 51.1788 28.1783 45.2043 22.2039C39.2299 16.2295 37.7235 8.04863 41.8426 3.93164Z" fill="#B75548"/>
<path d="M60.1148 7.29548C66.0892 13.2699 67.5957 21.4508 63.4787 25.5677L41.8425 3.93161C45.9595 -0.18753 54.1382 1.31891 60.1148 7.29548Z" fill="#8E4238"/>
<path d="M80.3191 40.6543V51.2926C80.3191 66.5435 67.9106 78.9521 52.6596 78.9521C37.4086 78.9521 25 66.5435 25 51.2926V40.6543C31.9148 40.6543 31.9148 43.633 38.8299 43.633C45.7449 43.633 45.7447 40.6543 52.6576 40.6543C59.5746 40.6543 59.5746 43.633 66.4895 43.633C73.4043 43.633 73.4043 40.6543 80.3191 40.6543Z" fill="#8E4238"/>
<path d="M18.617 76.2928H27.2621C34.0129 83.159 43.0043 86.9311 52.6594 86.9311C72.3102 86.9311 88.2977 70.9436 88.2977 51.2928V34.2715C88.2977 33.39 87.5834 32.6758 86.702 32.6758H18.6168C17.7354 32.6758 17.0211 33.39 17.0211 34.2715V39.1256C12.6498 39.4941 8.58984 41.3738 5.45254 44.5113C1.93652 48.0277 0 52.7029 0 57.6758C0 62.6486 1.93652 67.3236 5.45293 70.84C8.96934 74.3563 13.6445 76.2928 18.617 76.2928ZM7.70938 46.7682C10.6223 43.8547 14.4959 42.2502 18.6168 42.2502C19.4982 42.2502 20.2125 41.5359 20.2125 40.6545V35.8672H85.1061V51.2928C85.1061 69.184 70.5506 83.7397 52.6592 83.7397C43.6584 83.7397 35.2908 80.1387 29.098 73.5998C28.7967 73.2815 28.3775 73.1014 27.9395 73.1014H18.617C14.4971 73.1014 10.6234 71.4969 7.70957 68.5832C4.7959 65.6695 3.19141 61.7959 3.19141 57.6758C3.19141 53.5553 4.7959 49.6816 7.70938 46.7682Z" fill="#700D00"/>
<path d="M18.6171 69.9092H23.1722C23.7427 69.9092 24.2694 69.6047 24.5546 69.1107C24.8395 68.6168 24.839 68.008 24.5536 67.5145C21.7136 62.6053 20.2128 56.9957 20.2128 51.2924V47.0371C20.2128 46.1557 19.4985 45.4414 18.6171 45.4414C15.3491 45.4414 12.2769 46.7139 9.9665 49.0246C7.65596 51.3352 6.3833 54.4076 6.3833 57.6754C6.3833 60.943 7.65576 64.0154 9.9667 66.3262C12.2771 68.6367 15.3495 69.9092 18.6171 69.9092ZM12.2231 51.2809C13.5485 49.9555 15.2132 49.0922 17.0212 48.7719V51.2922C17.0212 56.6473 18.2265 61.9275 20.5261 66.7178H18.6171C16.2019 66.7178 13.9312 65.7772 12.2233 64.0693C10.5153 62.3613 9.57471 60.0906 9.57471 57.6754C9.57451 55.2596 10.5151 52.9891 12.2231 51.2809Z" fill="#700D00"/>
<path d="M52.6593 80.548C59.3169 80.548 65.5944 78.3594 70.8134 74.2182C71.5036 73.6705 71.6193 72.6666 71.0714 71.9762C70.5237 71.2859 69.5198 71.1705 68.8294 71.7182C64.1808 75.4066 58.589 77.3564 52.6591 77.3564C38.2874 77.3564 26.5952 65.6643 26.5952 51.2926L26.5954 42.3131C28.6837 42.4897 29.9071 43.0168 31.2827 43.6092C33.0448 44.3684 35.0423 45.2287 38.8286 45.2287C42.6151 45.2287 44.6126 44.3684 46.3747 43.6092C48.0679 42.8799 49.5298 42.25 52.6581 42.25C55.7866 42.25 57.2487 42.8799 58.9419 43.6092C60.704 44.3684 62.7017 45.2287 66.4882 45.2287C70.2747 45.2287 72.2722 44.3684 74.0345 43.6094C75.4105 43.0166 76.6339 42.4897 78.7228 42.3131L78.7226 51.2926C78.7226 57.2227 76.7728 62.8141 73.0843 67.4627C72.5364 68.1531 72.6523 69.157 73.3423 69.7047C74.0323 70.2525 75.0361 70.1369 75.5843 69.4467C79.7253 64.2279 81.9142 57.9504 81.9142 51.2926L81.9144 40.6543C81.9144 40.2311 81.7462 39.8254 81.4472 39.5258C81.1478 39.2266 80.7421 39.0586 80.3187 39.0586C76.5319 39.0586 74.5345 39.9189 72.772 40.6781C71.0788 41.4074 69.6167 42.0373 66.4882 42.0373C63.3597 42.0373 61.8976 41.4074 60.2044 40.6781C58.4423 39.9189 56.4446 39.0586 52.6581 39.0586C48.8718 39.0586 46.8743 39.9189 45.1122 40.6781C43.419 41.4074 41.9569 42.0373 38.8286 42.0373C35.7005 42.0373 34.2384 41.4074 32.5456 40.6781C30.7835 39.9189 28.786 39.0586 24.9997 39.0586C24.1185 39.0586 23.404 39.7729 23.404 40.6543L23.4038 51.2926C23.404 67.424 36.528 80.548 52.6593 80.548Z" fill="#700D00"/>
<path d="M98.4043 89.3457H6.9148C6.03335 89.3457 5.31909 90.06 5.31909 90.9414C5.31909 91.8229 6.03335 92.5371 6.9148 92.5371H7.83862L8.75913 95.758C9.43608 98.1277 11.897 99.984 14.3617 99.984H90.9574C93.422 99.984 95.883 98.1275 96.5601 95.758L97.4804 92.5371H98.4043C99.2857 92.5371 100 91.8229 100 90.9414C100 90.06 99.2857 89.3457 98.4043 89.3457ZM93.4914 94.8811C93.2054 95.8812 91.9976 96.7924 90.9574 96.7924H14.3617C13.3212 96.7924 12.1136 95.8812 11.8279 94.8811L11.1584 92.5371H94.1613L93.4914 94.8811Z" fill="#700D00"/>
<path d="M44.0759 23.3324C47.9279 27.1844 52.89 29.4842 57.3492 29.4846C60.273 29.4846 62.7824 28.5203 64.6066 26.6963C66.98 24.3227 67.8832 20.8221 67.1499 16.8389C66.4566 13.0727 64.3585 9.28203 61.2423 6.16582C57.39 2.31367 52.4279 0.0136719 47.9689 0.0136719C45.0455 0.0136719 42.5361 0.977734 40.7121 2.80176C38.3382 5.17578 37.4351 8.67637 38.1681 12.6596C38.8615 16.4258 40.9597 20.2164 44.0759 23.3324ZM58.9855 8.42266C61.6492 11.0861 63.4337 14.2801 64.0113 17.4164C64.4214 19.6443 64.173 21.623 63.3183 23.1508L52.9283 12.7609C52.3048 12.1379 51.2947 12.1379 50.6714 12.7609C50.0482 13.3844 50.0482 14.3945 50.6714 15.0178L61.0626 25.4088C60.0206 25.9904 58.763 26.2928 57.3503 26.2928C53.7179 26.2924 49.5994 24.342 46.3328 21.0754C43.6691 18.4119 41.8845 15.218 41.3072 12.0816C40.897 9.85371 41.1455 7.875 42.0001 6.34668L46.1581 10.5051C46.4699 10.8166 46.8783 10.9723 47.2867 10.9723C47.6949 10.9723 48.1035 10.8166 48.4152 10.5051C49.0384 9.88164 49.0384 8.87148 48.4152 8.24824L44.2562 4.08926C45.2984 3.50762 46.5562 3.20547 47.9695 3.20547C51.6001 3.20508 55.7187 5.15547 58.9855 8.42266Z" fill="#700D00"/>
</svg>
